<?xml version="1.0" encoding="utf-8"?>
<!-- Generator: Adobe Illustrator 19.2.1, SVG Export Plug-In . SVG Version: 6.00 Build 0)  -->
<svg version="1.1" id="Layer_1" xmlns="http://www.w3.org/2000/svg" xmlns:xlink="http://www.w3.org/1999/xlink" x="0px" y="0px"
	 viewBox="0 0 275 70" style="enable-background:new 0 0 275 70;" xml:space="preserve">
<style type="text/css">
	.st0{fill:#F21C2D;}
	.st1{fill:#FFFFFF;}
</style>
<title>beacon_sage_logo</title>
<path class="st0" d="M60.4,34.7c0-3-0.5-6-1.6-8.8c0.1,4-1.4,7.1-3.5,8.8c-0.2,0.1-0.2,0.2-0.3,0.1c0,0,0-0.1,0.1-0.2
	c0.3-0.4,6.5-5.1-1-16.6c-4.8-5.6-11.8-8.8-19.2-8.9c-4.5-0.3-9.4,0.1-13.5,0C7.7,8.6,8.2,1.4,8.1,1c0-0.1,0-0.2-0.1-0.2
	C8,0.8,8,0.8,8,1C7.9,4,10.2,7.8,15.1,9.8c3,1.2,6,1.5,9.3,1.6c-1.2,0.5-2.3,1.1-3.3,1.8c-0.8,0-1.6,0.1-2.4,0.1
	C0.2,13.7,0.4,4,0.2,3.5c0-0.2,0-0.2-0.1-0.2C0,3.3,0,3.3,0,3.5c0.1,3.9,3.4,8.9,10.2,11.1c2.4,0.7,4.8,1.2,7.3,1.4
	c-0.3,0.3-0.6,0.6-1,0.9c-0.6-0.1-1.1-0.2-1.7-0.3c-4.9-0.5-8.3,1.8-9.5,4.2c-0.1,0.1-0.1,0.2,0,0.2c0,0,0.1,0,0.1-0.1
	c0.2-0.2,2.1-4.8,9.9-2.7c-9,10.7-7.8,26.5,2.7,35.7c-0.1,0-0.2,0-0.4,0.1c-3.4,0.7-9,1.3-13.4,1c-0.1,0-0.1,0-0.2,0
	c-0.1,0-0.1,0.1,0,0.2c0,0,0,0,0.1,0c5.1,1.6,10.6,1.8,16.7,1.2c0.2,0,0.4,0,0.6-0.1c0.9,0.5,1.8,1,2.7,1.5c-0.7,0.3-1.3,0.6-2,1
	c-2.8,1.5-5.1,3.5-6.2,6.1c-0.9,2.1,0.1,4.4,2.8,4.2c0,0,0.1,0,0.1-0.1c0,0,0-0.1,0-0.1c0,0,0,0,0,0c-0.5,0-0.9-0.1-1.3-0.3
	c-0.8-0.4-1.2-1.1-1.1-2c0.3-1.7,2.1-3.4,4.1-4.3c2.9-1.4,5.8-2.1,8.8-2.6c1.7,0.8,3.7,1.4,5.7,1.6c5.2,0.7,11.2-0.4,15.7-4
	c1.8-1.5,3.1-3.3,3.8-5.2c0.2-0.5,0.3-1,0.4-1.4C58.5,46.2,60.4,40.5,60.4,34.7z M46.3,58.2c-0.8,0.2-1.6,0.4-2.4,0.5
	c4.1-1.6,7.7-4.1,10.5-7.5C53.7,54.2,51.1,56.9,46.3,58.2z"/>
<path class="st1" d="M29.7,47c0-0.4,0.2-0.8,0.6-1l4.1-2.4c0.4-0.2,0.8-0.2,1.1,0l4.1,2.4c0.3,0.2,0.5,0.6,0.6,1v4.8
	c0,0.4-0.2,0.8-0.6,1l-4.1,2.4c-0.4,0.2-0.8,0.2-1.1,0l-4.1-2.4c-0.3-0.2-0.5-0.6-0.6-1V47z"/>
<path class="st1" d="M41,43l-1.6-2.4c3.8-2.5,4.8-7.5,2.3-11.3c-2.5-3.8-7.5-4.8-11.3-2.3s-4.8,7.5-2.3,11.3
	c0.6,0.9,1.4,1.7,2.3,2.3L28.9,43c-5.1-3.3-6.5-10.1-3.1-15.2c3.3-5.1,10.1-6.5,15.2-3.1c5.1,3.3,6.5,10.1,3.1,15.2
	C43.3,41.1,42.2,42.2,41,43z"/>
<path class="st1" d="M43.9,47.7c-0.8,0-1.4-0.6-1.4-1.4c0-0.5,0.2-0.9,0.6-1.1c6.2-4.5,7.6-13.2,3.1-19.4C41.7,19.4,33,18,26.8,22.5
	C20.6,27,19.2,35.7,23.7,42c0.9,1.2,1.9,2.3,3.1,3.1c0.6,0.5,0.8,1.3,0.3,2c-0.5,0.6-1.3,0.8-2,0.3C17.7,42,16,31.5,21.4,24
	c5.4-7.5,15.9-9.2,23.4-3.8s9.2,15.9,3.8,23.4c-1,1.4-2.3,2.7-3.8,3.8C44.5,47.6,44.2,47.7,43.9,47.7z"/>
<path class="st1" d="M40.2,43.2c-0.8,0-1.4-0.6-1.4-1.4c0-0.5,0.2-0.9,0.6-1.2c3.8-2.5,4.8-7.5,2.3-11.3c-2.5-3.8-7.5-4.8-11.3-2.3
	s-4.8,7.5-2.3,11.3c0.6,0.9,1.4,1.7,2.3,2.3c0.7,0.4,0.8,1.3,0.4,2c-0.4,0.6-1.3,0.8-2,0.4c-5.1-3.3-6.5-10.1-3.1-15.2
	c3.3-5.1,10.1-6.5,15.2-3.1c5.1,3.3,6.5,10.1,3.1,15.2c-0.8,1.3-1.9,2.3-3.1,3.1C40.7,43.1,40.5,43.2,40.2,43.2z"/>
<path class="st1" d="M79.1,50.5c-1.4,0-2.8,0-4.3-0.1c-1.3-0.1-2.5-0.3-3.8-0.6V23.9c0.6-0.1,1.2-0.2,1.8-0.3c0.6-0.1,1.3-0.2,2-0.2
	c0.7-0.1,1.3-0.1,2-0.1c0.7,0,1.3,0,1.9,0c1.5,0,3,0.1,4.5,0.4c1.3,0.2,2.5,0.6,3.6,1.2c1,0.5,1.8,1.3,2.4,2.2
	c0.6,0.9,0.8,2.1,0.8,3.4c0,1.3-0.3,2.3-0.9,3.2c-0.6,0.9-1.5,1.7-2.5,2.2c1.6,0.5,2.8,1.3,3.6,2.4c0.8,1.1,1.2,2.4,1.2,4
	c0,2.7-1,4.8-3,6.2C86.3,49.9,83.2,50.5,79.1,50.5z M75.8,34.4h3.4c1.9,0,3.3-0.3,4.4-0.8c1.1-0.5,1.6-1.5,1.6-2.8
	c0-1.3-0.5-2.2-1.6-2.7c-1.1-0.5-2.5-0.8-4.3-0.8c-0.7,0-1.4,0-2,0c-0.6,0-1.1,0.1-1.5,0.1V34.4z M75.8,38.2v8.1
	c0.5,0.1,1.1,0.1,1.7,0.1c0.6,0,1.2,0,1.7,0c0.9,0,1.9-0.1,2.8-0.2c0.8-0.1,1.5-0.3,2.2-0.7c0.6-0.3,1.1-0.7,1.5-1.3
	c0.4-0.5,0.6-1.2,0.6-2.1c0-1.5-0.6-2.6-1.7-3.2c-1.1-0.6-2.6-0.9-4.6-0.9H75.8z"/>
<path class="st1" d="M93.4,40.3c0-1.8,0.3-3.3,0.8-4.7c0.5-1.2,1.2-2.4,2.1-3.3c0.9-0.9,1.9-1.6,3-2c1.1-0.4,2.3-0.7,3.5-0.7
	c2.8,0,4.9,0.9,6.5,2.6c1.6,1.7,2.3,4.3,2.3,7.7c0,0.3,0,0.5,0,0.9c0,0.3,0,0.6-0.1,0.9H98.3c0.1,1.6,0.7,2.9,1.7,3.8
	c1,0.9,2.5,1.3,4.4,1.3c1,0,2.1-0.1,3.1-0.3c0.8-0.2,1.5-0.4,2.2-0.7l0.6,3.8c-0.3,0.2-0.7,0.3-1.1,0.4c-0.5,0.2-1,0.3-1.5,0.4
	c-0.6,0.1-1.2,0.2-1.9,0.3c-0.7,0.1-1.4,0.1-2,0.1c-1.8,0-3.3-0.3-4.6-0.8c-1.2-0.5-2.3-1.2-3.2-2.2c-0.9-1-1.5-2.1-1.9-3.3
	C93.6,43.1,93.4,41.7,93.4,40.3z M107,38.2c0-0.6-0.1-1.2-0.3-1.8c-0.2-0.5-0.4-1.1-0.8-1.5c-0.3-0.4-0.8-0.8-1.3-1
	c-0.6-0.3-1.2-0.4-1.8-0.4c-0.7,0-1.3,0.1-1.9,0.4c-0.5,0.3-1,0.6-1.4,1.1c-0.4,0.4-0.7,1-0.9,1.5c-0.2,0.6-0.3,1.1-0.4,1.7H107z"/>
<path class="st1" d="M121.7,29.6c1.5,0,2.8,0.2,3.9,0.6c1,0.3,1.8,0.9,2.5,1.6c0.6,0.7,1.1,1.6,1.3,2.5c0.3,1.1,0.4,2.2,0.4,3.3
	v12.2c-0.7,0.2-1.8,0.3-3.3,0.6c-1.6,0.2-3.3,0.3-4.9,0.3c-1.1,0-2.2-0.1-3.3-0.3c-0.9-0.2-1.8-0.6-2.6-1.1c-0.7-0.5-1.3-1.2-1.7-2
	c-0.4-0.8-0.6-1.8-0.6-3c0-1.2,0.2-2.1,0.7-2.9c0.4-0.8,1.1-1.5,1.8-1.9c0.8-0.5,1.7-0.9,2.7-1.1c1-0.2,2.1-0.3,3.2-0.3
	c0.5,0,1.1,0,1.6,0.1c0.6,0.1,1.2,0.2,1.8,0.3v-0.8c0-0.5-0.1-1-0.2-1.5c-0.1-0.5-0.4-0.9-0.7-1.3c-0.3-0.4-0.8-0.7-1.3-0.9
	c-0.6-0.2-1.3-0.3-2-0.3c-1,0-2,0.1-3,0.2c-0.7,0.1-1.5,0.3-2.2,0.5l-0.6-3.8c0.8-0.3,1.7-0.5,2.6-0.6
	C119.3,29.7,120.5,29.6,121.7,29.6z M122.1,47c1.4,0,2.5-0.1,3.3-0.2v-5.2c-0.4-0.1-0.7-0.2-1.1-0.2c-0.5-0.1-1.1-0.1-1.6-0.1
	c-0.5,0-1,0-1.6,0.1c-0.5,0.1-1,0.2-1.4,0.4c-0.4,0.2-0.8,0.5-1,0.9c-0.3,0.4-0.4,0.9-0.4,1.4c0,1.1,0.3,1.9,1,2.3
	C120,46.7,120.9,47,122.1,47z"/>
<path class="st1" d="M133,40.2c0-1.4,0.2-2.8,0.7-4.2c0.4-1.2,1.1-2.4,2-3.4c0.9-1,1.9-1.7,3.1-2.2c1.3-0.6,2.7-0.8,4.2-0.8
	c1.8,0,3.7,0.3,5.4,1l-1,3.8c-0.6-0.2-1.2-0.4-1.8-0.6c-0.7-0.2-1.4-0.2-2.2-0.2c-1.8,0-3.2,0.6-4.2,1.7c-1,1.1-1.4,2.8-1.4,4.8
	c0,2,0.4,3.6,1.3,4.8c0.9,1.2,2.4,1.8,4.5,1.8c0.8,0,1.6-0.1,2.4-0.2c0.7-0.1,1.4-0.3,2-0.6l0.7,3.9c-0.5,0.3-1.3,0.5-2.3,0.7
	c-1.1,0.2-2.1,0.3-3.2,0.3c-1.7,0-3.2-0.3-4.5-0.8c-1.2-0.5-2.3-1.2-3.2-2.2c-0.9-1-1.5-2.1-1.9-3.4C133.1,43,132.9,41.6,133,40.2z"
	/>
<path class="st1" d="M168.5,40.1c0,1.5-0.2,3-0.7,4.4c-0.4,1.2-1.1,2.4-2,3.4c-0.9,0.9-1.9,1.7-3.1,2.2c-1.3,0.5-2.6,0.8-4,0.8
	c-1.3,0-2.7-0.2-3.9-0.8c-1.2-0.5-2.2-1.2-3-2.2c-0.9-1-1.6-2.1-2-3.4c-0.5-1.4-0.7-2.9-0.7-4.4c0-1.5,0.2-2.9,0.7-4.3
	c0.4-1.2,1.1-2.4,2-3.3c0.9-0.9,1.9-1.7,3.1-2.1c1.2-0.5,2.6-0.8,3.9-0.8c1.3,0,2.7,0.2,3.9,0.8c1.2,0.5,2.2,1.2,3.1,2.1
	c0.9,1,1.5,2.1,2,3.3C168.3,37.2,168.5,38.7,168.5,40.1z M163.7,40.1c0-2-0.4-3.6-1.3-4.8c-0.9-1.2-2.1-1.8-3.6-1.8
	c-1.5,0-2.7,0.6-3.6,1.8c-0.9,1.2-1.3,2.8-1.3,4.8c0,2,0.4,3.6,1.3,4.8c0.9,1.2,2.1,1.8,3.6,1.8c1.5,0,2.7-0.6,3.6-1.8
	C163.3,43.8,163.7,42.2,163.7,40.1z"/>
<path class="st1" d="M171.8,30.7c1.2-0.3,2.3-0.6,3.5-0.7c1.6-0.2,3.2-0.4,4.8-0.3c1.6,0,3,0.2,4.1,0.7c1,0.4,1.9,1,2.6,1.9
	c0.7,0.9,1.2,1.9,1.4,2.9c0.3,1.2,0.4,2.5,0.4,3.8v11.3H184V39.6c0-0.9-0.1-1.8-0.2-2.8c-0.1-0.7-0.3-1.3-0.7-1.9
	c-0.3-0.5-0.8-0.8-1.3-1c-0.6-0.2-1.3-0.3-2-0.3c-0.6,0-1.2,0-1.9,0.1c-0.6,0.1-1.1,0.1-1.4,0.2v16.3h-4.7V30.7z"/>
<path class="st1" d="M199,48.5c2.1,0,3.7-0.4,4.9-1.1c1.2-0.8,1.7-2,1.7-3.7c0-1-0.2-1.8-0.6-2.5c-0.4-0.7-0.9-1.2-1.5-1.7
	c-0.7-0.5-1.4-0.9-2.1-1.2c-0.8-0.3-1.6-0.7-2.5-1c-1-0.4-2-0.8-3-1.3c-0.8-0.4-1.6-0.9-2.2-1.6c-0.6-0.6-1.1-1.2-1.4-2
	c-0.3-0.8-0.5-1.7-0.5-2.6c0-2.3,0.8-4,2.3-5.2c1.5-1.2,3.6-1.8,6.3-1.8c0.7,0,1.4,0.1,2.1,0.2c0.7,0.1,1.3,0.2,1.9,0.4
	c0.6,0.2,1.1,0.3,1.7,0.6c0.4,0.2,0.9,0.4,1.3,0.7l-0.9,2.2c-0.8-0.6-1.8-1-2.7-1.2c-1.1-0.3-2.3-0.5-3.4-0.5
	c-0.8,0-1.6,0.1-2.3,0.3c-0.7,0.1-1.3,0.4-1.8,0.8c-0.5,0.4-0.9,0.8-1.2,1.4c-0.3,0.6-0.5,1.3-0.4,2c0,0.7,0.1,1.4,0.5,2.1
	c0.3,0.6,0.8,1.1,1.3,1.5c0.6,0.4,1.3,0.8,1.9,1.1c0.7,0.3,1.6,0.7,2.4,1c1.1,0.4,2,0.9,3,1.3c0.9,0.4,1.7,0.9,2.4,1.5
	c0.7,0.6,1.3,1.3,1.7,2.2c0.4,0.8,0.6,1.9,0.6,3.1c0,2.4-0.8,4.2-2.5,5.4c-1.7,1.2-4,1.8-6.8,1.8c-0.9,0-1.9-0.1-2.8-0.2
	c-0.8-0.1-1.5-0.3-2.3-0.5c-0.6-0.2-1.1-0.4-1.7-0.6c-0.4-0.2-0.7-0.3-1.1-0.5l0.8-2.3c0.3,0.2,0.6,0.3,1,0.5c0.5,0.2,1,0.4,1.5,0.6
	c0.7,0.2,1.3,0.4,2,0.5C197.4,48.5,198.2,48.5,199,48.5z"/>
<path class="st1" d="M218.4,29.8c1.3,0,2.4,0.2,3.3,0.6c0.9,0.3,1.6,0.9,2.2,1.5c0.6,0.7,1,1.5,1.2,2.3c0.3,1,0.4,1.9,0.4,2.9v12.6
	c-0.4,0.1-0.7,0.2-1.1,0.3c-0.5,0.1-1.1,0.2-1.7,0.3c-0.6,0.1-1.4,0.2-2.1,0.3c-0.8,0.1-1.6,0.1-2.4,0.1c-1,0-2-0.1-2.9-0.3
	c-0.8-0.2-1.6-0.6-2.3-1.1c-0.7-0.5-1.2-1.2-1.5-1.9c-0.4-0.8-0.6-1.7-0.6-2.9c0-1.1,0.2-2,0.6-2.8c0.4-0.8,1-1.4,1.7-1.9
	c0.8-0.5,1.7-0.9,2.7-1.1c1.1-0.2,2.2-0.4,3.4-0.3c0.4,0,0.7,0,1.1,0.1c0.4,0,0.8,0.1,1.2,0.2c0.4,0.1,0.7,0.1,1,0.2
	c0.2,0,0.4,0.1,0.6,0.2v-1.2c0-0.7-0.1-1.4-0.2-2c-0.1-0.6-0.3-1.2-0.7-1.8c-0.4-0.5-0.9-1-1.5-1.3c-0.6-0.3-1.5-0.5-2.5-0.5
	c-1.5,0-2.6,0.1-3.3,0.3c-0.7,0.2-1.2,0.4-1.6,0.5l-0.3-2.2c0.4-0.2,1.1-0.4,2-0.6C216.2,29.9,217.3,29.8,218.4,29.8z M218.6,48.4
	c1,0,1.8,0,2.6-0.1c0.6,0,1.3-0.1,1.9-0.3v-7c-0.4-0.2-0.9-0.3-1.3-0.4c-0.8-0.2-1.7-0.2-2.5-0.2c-0.6,0-1.3,0-1.9,0.1
	c-0.6,0.1-1.3,0.3-1.8,0.6c-0.6,0.3-1,0.7-1.4,1.2c-0.4,0.5-0.5,1.2-0.5,2c0,0.6,0.1,1.3,0.4,1.9c0.2,0.5,0.6,0.9,1,1.2
	c0.5,0.3,1,0.6,1.6,0.7C217.2,48.4,217.9,48.4,218.6,48.4z"/>
<path class="st1" d="M244.1,47.9c-0.2,0.2-0.4,0.3-0.7,0.4c-0.4,0.2-0.7,0.4-1.1,0.5c-0.5,0.2-1,0.3-1.5,0.4
	c-0.6,0.1-1.3,0.2-1.9,0.2c-1.1,0-2.3-0.2-3.4-0.5c-1.1-0.3-2-0.9-2.8-1.7c-0.9-0.8-1.5-1.9-1.9-3c-0.5-1.2-0.7-2.7-0.7-4.5
	c0-1.3,0.2-2.7,0.7-3.9c0.4-1.2,1-2.2,1.9-3.1c0.8-0.9,1.8-1.6,3-2.1c1.3-0.5,2.6-0.8,4-0.8c1.9,0,3.3,0.1,4.5,0.4
	c1.1,0.2,2,0.5,2.8,0.7v18.2c0,3-0.8,5.1-2.3,6.4c-1.5,1.3-3.9,1.9-7,1.9c-1.2,0-2.3-0.1-3.5-0.3c-0.9-0.2-1.8-0.4-2.7-0.7l0.5-2.3
	c0.8,0.3,1.7,0.6,2.5,0.7c1.1,0.2,2.1,0.3,3.2,0.3c2.4,0,4.1-0.5,5.1-1.4c1.1-0.9,1.6-2.5,1.6-4.7V47.9z M244.1,32.7
	c-0.6-0.2-1.1-0.3-1.7-0.4c-1-0.1-2-0.2-3-0.2c-1,0-2,0.2-2.9,0.6c-0.8,0.4-1.6,0.9-2.1,1.6c-0.6,0.7-1.1,1.5-1.3,2.4
	c-0.3,1-0.5,2.1-0.5,3.1c0,1.3,0.2,2.4,0.5,3.4c0.3,0.9,0.8,1.6,1.4,2.3c0.6,0.6,1.2,1,2,1.3c0.7,0.3,1.5,0.4,2.3,0.4
	c1.1,0,2.1-0.2,3.1-0.5c0.9-0.3,1.7-0.7,2.2-1.2V32.7z"/>
<path class="st1" d="M251.3,40.3c0-1.7,0.3-3.3,0.8-4.6c0.4-1.2,1.1-2.3,2-3.3c0.8-0.8,1.7-1.5,2.8-1.9c1-0.4,2.1-0.6,3.2-0.6
	c2.4,0,4.4,0.8,5.8,2.4c1.5,1.6,2.2,4,2.2,7.4c0,0.2,0,0.4,0,0.6c0,0.2,0,0.4-0.1,0.6h-14c0.1,2.4,0.7,4.3,1.8,5.6
	c1.1,1.3,2.9,2,5.4,2c1.4,0,2.4-0.1,3.2-0.4c0.6-0.2,1.2-0.4,1.7-0.7l0.5,2.2c-0.4,0.2-1,0.5-2,0.7c-1.1,0.3-2.3,0.4-3.5,0.4
	c-1.7,0-3.2-0.3-4.5-0.8c-1.2-0.5-2.2-1.2-3-2.2c-0.8-1-1.4-2.1-1.7-3.3C251.4,43.1,251.3,41.7,251.3,40.3z M265.4,38.7
	c-0.1-2.1-0.5-3.7-1.5-4.9c-0.9-1.2-2.2-1.7-3.9-1.7c-0.8,0-1.7,0.2-2.4,0.5c-0.7,0.4-1.3,0.8-1.8,1.4c-0.5,0.6-1,1.3-1.2,2.1
	c-0.3,0.8-0.5,1.6-0.5,2.5H265.4z"/>
</svg>
